<?xml version="1.0" standalone="no"?>
<!DOCTYPE svg PUBLIC "-//W3C//DTD SVG 20010904//EN"
 "http://www.w3.org/TR/2001/REC-SVG-20010904/DTD/svg10.dtd">
<svg version="1.0" xmlns="http://www.w3.org/2000/svg"
 width="150.000000pt" height="150.000000pt" viewBox="0 0 150.000000 150.000000"
 preserveAspectRatio="xMidYMid meet">
<metadata>
Created by potrace 1.16, written by Peter Selinger 2001-2019
</metadata>
<g transform="translate(0.000000,150.000000) scale(0.100000,-0.100000)"
fill="#000000" stroke="none">
<path d="M716 1038 c-3 -17 -6 -40 -6 -52 0 -19 -4 -21 -61 -18 -49 3 -61 1
-57 -10 3 -7 13 -39 22 -70 16 -56 18 -58 51 -58 l35 0 0 -49 c0 -48 0 -49 35
-53 l35 -4 0 63 c0 60 -1 63 -27 69 -30 7 -53 22 -53 34 0 4 6 8 13 7 64 -2
64 -1 69 71 3 37 9 76 13 87 8 18 7 19 -9 6 -14 -11 -22 -12 -36 -4 -15 10
-19 8 -24 -19z"/>
</g>
</svg>
